# xmcd
#
# Track frame offsets:
#	150
#	37191
#	51683
#	69482
#	93372
#	111891
#	148032
#	171262
#	191703
#
# Disc length: 2836 seconds
#
# Revision: 1
# Processed by: cddbd v1.5.2PL0 Copyright (c) Steve Scherf et al.
# Submitted via: audiograbber 1.83.01
#
DISCID=8b0b1209
DTITLE=Grateful Dead - 80-09-26 Warfield Theatre, San Francisco CA
DYEAR=1900
DGENRE=
TTITLE0=To Lay Me Down
TTITLE1=On The Road Again
TTITLE2=I've Been All Around This World
TTITLE3=Dark Hollow
TTITLE4=Rosalie McFall
TTITLE5=Bird Song
TTITLE6=Cassidy
TTITLE7=China Doll
TTITLE8=Ripple
EXTD=
EXTT0=
EXTT1=
EXTT2=
EXTT3=
EXTT4=
EXTT5=
EXTT6=
EXTT7=
EXTT8=
PLAYORDER=
